<?xml version="1.0" standalone="no"?>
<!DOCTYPE svg PUBLIC "-//W3C//DTD SVG 20010904//EN"
 "http://www.w3.org/TR/2001/REC-SVG-20010904/DTD/svg10.dtd">
<svg version="1.0" xmlns="http://www.w3.org/2000/svg"
 width="250.000000pt" height="250.000000pt" viewBox="0 0 250.000000 250.000000"
 preserveAspectRatio="xMidYMid meet">
<metadata>
Created by potrace 1.11, written by Peter Selinger 2001-2013
</metadata>
<g transform="translate(0.000000,250.000000) scale(0.100000,-0.100000)"
fill="#000000" stroke="none">
<path d="M1089 2286 c-3 -3 -34 -8 -69 -11 -36 -3 -74 -8 -85 -10 -11 -2 -45
-7 -75 -10 -111 -13 -319 -66 -406 -104 -75 -34 -91 -54 -99 -124 -4 -34 -11
-80 -15 -102 -5 -22 -12 -62 -16 -90 -3 -27 -8 -53 -10 -56 -2 -4 -6 -24 -10
-45 -3 -22 -24 -118 -45 -214 -22 -96 -42 -186 -44 -200 -3 -14 -7 -36 -11
-50 -3 -14 -13 -76 -23 -139 -24 -151 -20 -260 14 -376 45 -149 54 -188 59
-243 7 -89 43 -120 169 -147 77 -16 287 -12 376 8 62 14 66 14 119 -10 96 -42
283 -100 382 -118 346 -64 563 -41 825 85 106 51 188 115 226 177 27 43 46
124 43 178 -2 22 -4 90 -4 150 -1 144 -14 215 -55 300 -34 70 -107 157 -175
207 -238 177 -630 193 -892 37 -120 -71 -205 -167 -284 -322 -32 -63 -69 -115
-77 -107 -3 3 -7 23 -10 45 -10 71 -49 217 -72 270 -30 69 -73 182 -79 207 -3
14 -9 63 -12 108 -7 89 -2 100 46 100 14 0 36 7 48 16 12 8 32 15 45 14 54 -5
80 2 104 26 18 18 32 24 48 20 32 -8 81 11 100 40 10 16 25 24 43 24 31 0 65
31 77 69 4 14 7 52 6 85 -2 117 -83 308 -132 314 -14 2 -27 1 -30 -2z"/>
</g>
</svg>
